{
  "source": "C:\\Users\\Peter\\Desktop\\stuff\\MIUN\\quantitative_research\\video_compression\\videos\\BVI-HD\\BVI-HD_CDVL_videos\\ORIG\\Surfers_1920x1080_30fps.mp4",
  "output": "C:\\Users\\Peter\\Desktop\\stuff\\MIUN\\quantitative_research\\video_compression\\compressed_videos\\BVI-HD\\h264\\4\\Surfers_1920x1080_30fps_h264.mp4",
  "codec": "h264",
  "ok": "Input #0, mov,mp4,m4a,3gp,3g2,mj2, from 'C:\\Users\\Peter\\Desktop\\stuff\\MIUN\\quantitative_research\\video_compression\\videos\\BVI-HD\\BVI-HD_CDVL_videos\\ORIG\\Surfers_1920x1080_30fps.mp4':\n  Metadata:\n    major_brand     : isom\n    minor_version   : 512\n    compatible_brands: isomiso2avc1mp41\n    encoder         : Lavf54.28.101\n  Duration: 00:00:05.00, start: 0.000000, bitrate: 232762 kb/s\n  Stream #0:0[0x1](und): Video: h264 (High 4:4:4 Predictive) (avc1 / 0x31637661), yuv420p(progressive), 1920x1080, 232759 kb/s, 30 fps, 30 tbr, 30 tbn (default)\n    Metadata:\n      handler_name    : VideoHandler\n      vendor_id       : [0][0][0][0]\n[out#0/mp4 @ 000001c51871abc0] Codec AVOption b:a (set bitrate (in bits/s)) has not been used for any stream. The most likely reason is either wrong type (e.g. a video option with no video streams) or that it is a private option of some decoder which was not actually used for any stream.\nStream mapping:\n  Stream #0:0 -> #0:0 (h264 (native) -> h264 (libx264))\nPress [q] to stop, [?] for help\n[libx264 @ 000001c518750a40] using cpu capabilities: MMX2 SSE2Fast SSSE3 SSE4.2 AVX FMA3 BMI2 AVX2\n[libx264 @ 000001c518750a40] profile High, level 5.0, 4:2:0, 8-bit\n[libx264 @ 000001c518750a40] 264 - core 165 r3222 b35605a - H.264/MPEG-4 AVC codec - Copyleft 2003-2025 - http://www.videolan.org/x264.html - options: cabac=1 ref=5 deblock=1:0:0 analyse=0x3:0x113 me=hex subme=8 psy=1 psy_rd=1.00:0.00 mixed_ref=1 me_range=16 chroma_me=1 trellis=2 8x8dct=1 cqm=0 deadzone=21,11 fast_pskip=1 chroma_qp_offset=-2 threads=18 lookahead_threads=3 sliced_threads=0 nr=0 decimate=1 interlaced=0 bluray_compat=0 constrained_intra=0 bframes=3 b_pyramid=2 b_adapt=1 b_bias=0 direct=3 weightb=1 open_gop=0 weightp=2 keyint=250 keyint_min=25 scenecut=40 intra_refresh=0 rc_lookahead=50 rc=cbr mbtree=1 bitrate=4000 ratetol=1.0 qcomp=0.60 qpmin=0 qpmax=69 qpstep=4 vbv_maxrate=4000 vbv_bufsize=4000 nal_hrd=none filler=0 ip_ratio=1.40 aq=1:1.00\nOutput #0, mp4, to 'C:\\Users\\Peter\\Desktop\\stuff\\MIUN\\quantitative_research\\video_compression\\compressed_videos\\BVI-HD\\h264\\4\\Surfers_1920x1080_30fps_h264.mp4':\n  Metadata:\n    major_brand     : isom\n    minor_version   : 512\n    compatible_brands: isomiso2avc1mp41\n    encoder         : Lavf62.3.100\n  Stream #0:0(und): Video: h264 (avc1 / 0x31637661), yuv420p(tv, progressive), 1920x1080, q=2-31, 4000 kb/s, 30 fps, 15360 tbn (default)\n    Metadata:\n      encoder         : Lavc62.11.100 libx264\n      handler_name    : VideoHandler\n      vendor_id       : [0][0][0][0]\n    Side data:\n      cpb: bitrate max/min/avg: 4000000/0/4000000 buffer size: 4000000 vbv_delay: N/A\nframe=    0 fps=0.0 q=0.0 size=       0KiB time=N/A bitrate=N/A speed=N/A elapsed=0:00:00.52    \nframe=    0 fps=0.0 q=0.0 size=       0KiB time=N/A bitrate=N/A speed=N/A elapsed=0:00:01.07    \nframe=   13 fps=8.0 q=36.0 size=       0KiB time=00:00:00.36 bitrate=   1.0kbits/s speed=0.227x elapsed=0:00:01.61    \nframe=   30 fps= 14 q=34.0 size=     256KiB time=00:00:00.86 bitrate=2420.2kbits/s speed=0.401x elapsed=0:00:02.15    \nframe=   50 fps= 18 q=35.0 size=     512KiB time=00:00:01.60 bitrate=2621.7kbits/s speed=0.579x elapsed=0:00:02.76    \nframe=   59 fps= 18 q=35.0 size=     768KiB time=00:00:01.90 bitrate=3311.5kbits/s speed=0.571x elapsed=0:00:03.32    \nframe=   86 fps= 22 q=36.0 size=    1280KiB time=00:00:02.80 bitrate=3745.1kbits/s speed=0.728x elapsed=0:00:03.84    \nframe=  110 fps= 25 q=35.0 size=    1536KiB time=00:00:03.60 bitrate=3495.4kbits/s speed=0.825x elapsed=0:00:04.36    \nframe=  138 fps= 28 q=-1.0 size=    2048KiB time=00:00:04.53 bitrate=3700.9kbits/s speed=0.929x elapsed=0:00:04.88    \n[mp4 @ 000001c51871acc0] Starting second pass: moving the moov atom to the beginning of the file\n[out#0/mp4 @ 000001c51871abc0] video:2403KiB audio:0KiB subtitle:0KiB other streams:0KiB global headers:0KiB muxing overhead: 0.108230%\nframe=  150 fps= 30 q=-1.0 Lsize=    2405KiB time=00:00:04.93 bitrate=3994.3kbits/s speed=0.982x elapsed=0:00:05.02    \n[libx264 @ 000001c518750a40] frame I:2     Avg QP:29.70  size: 34475\n[libx264 @ 000001c518750a40] frame P:41    Avg QP:32.52  size: 26900\n[libx264 @ 000001c518750a40] frame B:107   Avg QP:34.63  size: 12036\n[libx264 @ 000001c518750a40] consecutive B-frames:  2.7%  4.0%  8.0% 85.3%\n[libx264 @ 000001c518750a40] mb I  I16..4: 51.9% 44.1%  4.0%\n[libx264 @ 000001c518750a40] mb P  I16..4:  6.2% 12.2%  1.1%  P16..4: 36.8%  7.1%  3.3%  0.0%  0.0%    skip:33.4%\n[libx264 @ 000001c518750a40] mb B  I16..4:  0.4%  1.0%  0.0%  B16..8: 40.2%  4.3%  0.5%  direct: 5.1%  skip:48.4%  L0:44.8% L1:48.5% BI: 6.7%\n[libx264 @ 000001c518750a40] 8x8 transform intra:60.3% inter:88.3%\n[libx264 @ 000001c518750a40] direct mvs  spatial:91.6% temporal:8.4%\n[libx264 @ 000001c518750a40] coded y,uvDC,uvAC intra: 50.0% 21.4% 0.5% inter: 15.7% 4.2% 0.0%\n[libx264 @ 000001c518750a40] i16 v,h,dc,p:  5% 68%  4% 22%\n[libx264 @ 000001c518750a40] i8 v,h,dc,ddl,ddr,vr,hd,vl,hu:  3% 37%  5%  3%  6%  3% 20%  3% 20%\n[libx264 @ 000001c518750a40] i4 v,h,dc,ddl,ddr,vr,hd,vl,hu:  1% 40%  4%  2%  6%  3% 19%  3% 22%\n[libx264 @ 000001c518750a40] i8c dc,h,v,p: 40% 56%  3%  1%\n[libx264 @ 000001c518750a40] Weighted P-Frames: Y:0.0% UV:0.0%\n[libx264 @ 000001c518750a40] ref P L0: 47.9% 12.6% 19.0% 10.6%  9.6%  0.2%\n[libx264 @ 000001c518750a40] ref B L0: 79.0% 13.3%  6.0%  1.7%\n[libx264 @ 000001c518750a40] ref B L1: 92.7%  7.3%\n[libx264 @ 000001c518750a40] kb/s:3935.58\n",
  "seconds": 5.25612473487854,
  "probe_out": {}
}